<svg height="4846" width="720" xmlns="http://www.w3.org/2000/svg">
<rect height="4846" fill="#555" width="720"></rect>
<text fill="#7f7" font-family="Courier New" font-size="12" xml:space="preserve">
<tspan x="10" y="26">43 megabytes installed</tspan>
<tspan x="10" y="42"></tspan>
<tspan x="10" y="58">node_modules</tspan>
<tspan x="10" y="74">└─┬ grunt-browser-sync@2.2.0 </tspan>
<tspan x="10" y="90">  └─┬ browser-sync@2.18.8 </tspan>
<tspan x="10" y="106">    ├─┬ browser-sync-client@2.4.5 </tspan>
<tspan x="10" y="122">    │ ├── etag@1.8.0 </tspan>
<tspan x="10" y="138">    │ └── fresh@0.3.0 </tspan>
<tspan x="10" y="154">    ├─┬ browser-sync-ui@0.6.3 </tspan>
<tspan x="10" y="170">    │ ├── async-each-series@0.1.1 </tspan>
<tspan x="10" y="186">    │ ├── connect-history-api-fallback@1.3.0 </tspan>
<tspan x="10" y="202">    │ ├─┬ stream-throttle@0.1.3 </tspan>
<tspan x="10" y="218">    │ │ ├─┬ commander@2.9.0 </tspan>
<tspan x="10" y="234">    │ │ │ └── graceful-readlink@1.0.1 </tspan>
<tspan x="10" y="250">    │ │ └── limiter@1.1.0 </tspan>
<tspan x="10" y="266">    │ └─┬ weinre@2.0.0-pre-I0Z7U9OV </tspan>
<tspan x="10" y="282">    │   ├─┬ express@2.5.11 </tspan>
<tspan x="10" y="298">    │   │ ├─┬ connect@1.9.2 </tspan>
<tspan x="10" y="314">    │   │ │ └── formidable@1.0.17 </tspan>
<tspan x="10" y="330">    │   │ ├── mime@1.2.4 </tspan>
<tspan x="10" y="346">    │   │ ├── mkdirp@0.3.0 </tspan>
<tspan x="10" y="362">    │   │ └── qs@0.4.2 </tspan>
<tspan x="10" y="378">    │   ├─┬ nopt@3.0.6 </tspan>
<tspan x="10" y="394">    │   │ └── abbrev@1.1.0 </tspan>
<tspan x="10" y="410">    │   └── underscore@1.7.0 </tspan>
<tspan x="10" y="426">    ├── bs-recipes@1.3.4 </tspan>
<tspan x="10" y="442">    ├─┬ chokidar@1.6.1 </tspan>
<tspan x="10" y="458">    │ ├─┬ anymatch@1.3.0 </tspan>
<tspan x="10" y="474">    │ │ └── arrify@1.0.1 </tspan>
<tspan x="10" y="490">    │ ├── async-each@1.0.1 </tspan>
<tspan x="10" y="506">    │ ├── glob-parent@2.0.0 </tspan>
<tspan x="10" y="522">    │ ├── inherits@2.0.3 </tspan>
<tspan x="10" y="538">    │ ├─┬ is-binary-path@1.0.1 </tspan>
<tspan x="10" y="554">    │ │ └── binary-extensions@1.8.0 </tspan>
<tspan x="10" y="570">    │ ├── is-glob@2.0.1 </tspan>
<tspan x="10" y="586">    │ ├── path-is-absolute@1.0.1 </tspan>
<tspan x="10" y="602">    │ └─┬ readdirp@2.1.0 </tspan>
<tspan x="10" y="618">    │   ├─┬ readable-stream@2.2.9 </tspan>
<tspan x="10" y="634">    │   │ ├── buffer-shims@1.0.0 </tspan>
<tspan x="10" y="650">    │   │ ├── core-util-is@1.0.2 </tspan>
<tspan x="10" y="666">    │   │ ├── isarray@1.0.0 </tspan>
<tspan x="10" y="682">    │   │ ├── process-nextick-args@1.0.7 </tspan>
<tspan x="10" y="698">    │   │ ├── string_decoder@1.0.0 </tspan>
<tspan x="10" y="714">    │   │ └── util-deprecate@1.0.2 </tspan>
<tspan x="10" y="730">    │   └── set-immediate-shim@1.0.1 </tspan>
<tspan x="10" y="746">    ├─┬ connect@3.5.0 </tspan>
<tspan x="10" y="762">    │ ├─┬ debug@2.2.0 </tspan>
<tspan x="10" y="778">    │ │ └── ms@0.7.1 </tspan>
<tspan x="10" y="794">    │ ├─┬ finalhandler@0.5.0 </tspan>
<tspan x="10" y="810">    │ │ ├─┬ on-finished@2.3.0 </tspan>
<tspan x="10" y="826">    │ │ │ └── ee-first@1.1.1 </tspan>
<tspan x="10" y="842">    │ │ ├── statuses@1.3.1 </tspan>
<tspan x="10" y="858">    │ │ └── unpipe@1.0.0 </tspan>
<tspan x="10" y="874">    │ ├── parseurl@1.3.1 </tspan>
<tspan x="10" y="890">    │ └── utils-merge@1.0.0 </tspan>
<tspan x="10" y="906">    ├── dev-ip@1.0.1 </tspan>
<tspan x="10" y="922">    ├─┬ easy-extender@2.3.2 </tspan>
<tspan x="10" y="938">    │ └── lodash@3.10.1 </tspan>
<tspan x="10" y="954">    ├─┬ eazy-logger@3.0.2 </tspan>
<tspan x="10" y="970">    │ └─┬ tfunk@3.1.0 </tspan>
<tspan x="10" y="986">    │   ├─┬ chalk@1.1.3 </tspan>
<tspan x="10" y="1002">    │   │ ├── ansi-styles@2.2.1 </tspan>
<tspan x="10" y="1018">    │   │ ├── escape-string-regexp@1.0.5 </tspan>
<tspan x="10" y="1034">    │   │ ├── has-ansi@2.0.0 </tspan>
<tspan x="10" y="1050">    │   │ └── supports-color@2.0.0 </tspan>
<tspan x="10" y="1066">    │   └── object-path@0.9.2 </tspan>
<tspan x="10" y="1082">    ├── emitter-steward@1.0.0 </tspan>
<tspan x="10" y="1098">    ├─┬ fs-extra@1.0.0 </tspan>
<tspan x="10" y="1114">    │ ├── graceful-fs@4.1.11 </tspan>
<tspan x="10" y="1130">    │ ├── jsonfile@2.4.0 </tspan>
<tspan x="10" y="1146">    │ └── klaw@1.3.1 </tspan>
<tspan x="10" y="1162">    ├─┬ http-proxy@1.15.2 </tspan>
<tspan x="10" y="1178">    │ ├── eventemitter3@1.2.0 </tspan>
<tspan x="10" y="1194">    │ └── requires-port@1.0.0 </tspan>
<tspan x="10" y="1210">    ├── immutable@3.8.1 </tspan>
<tspan x="10" y="1226">    ├─┬ localtunnel@1.8.2 </tspan>
<tspan x="10" y="1242">    │ ├── openurl@1.1.0 </tspan>
<tspan x="10" y="1258">    │ ├─┬ request@2.78.0 </tspan>
<tspan x="10" y="1274">    │ │ ├── aws-sign2@0.6.0 </tspan>
<tspan x="10" y="1290">    │ │ ├── aws4@1.6.0 </tspan>
<tspan x="10" y="1306">    │ │ ├── caseless@0.11.0 </tspan>
<tspan x="10" y="1322">    │ │ ├─┬ combined-stream@1.0.5 </tspan>
<tspan x="10" y="1338">    │ │ │ └── delayed-stream@1.0.0 </tspan>
<tspan x="10" y="1354">    │ │ ├── extend@3.0.0 </tspan>
<tspan x="10" y="1370">    │ │ ├── forever-agent@0.6.1 </tspan>
<tspan x="10" y="1386">    │ │ ├─┬ form-data@2.1.4 </tspan>
<tspan x="10" y="1402">    │ │ │ └── asynckit@0.4.0 </tspan>
<tspan x="10" y="1418">    │ │ ├─┬ har-validator@2.0.6 </tspan>
<tspan x="10" y="1434">    │ │ │ └─┬ is-my-json-valid@2.16.0 </tspan>
<tspan x="10" y="1450">    │ │ │   ├── generate-function@2.0.0 </tspan>
<tspan x="10" y="1466">    │ │ │   ├─┬ generate-object-property@1.2.0 </tspan>
<tspan x="10" y="1482">    │ │ │   │ └── is-property@1.0.2 </tspan>
<tspan x="10" y="1498">    │ │ │   ├── jsonpointer@4.0.1 </tspan>
<tspan x="10" y="1514">    │ │ │   └── xtend@4.0.1 </tspan>
<tspan x="10" y="1530">    │ │ ├─┬ hawk@3.1.3 </tspan>
<tspan x="10" y="1546">    │ │ │ ├── boom@2.10.1 </tspan>
<tspan x="10" y="1562">    │ │ │ ├── cryptiles@2.0.5 </tspan>
<tspan x="10" y="1578">    │ │ │ ├── hoek@2.16.3 </tspan>
<tspan x="10" y="1594">    │ │ │ └── sntp@1.0.9 </tspan>
<tspan x="10" y="1610">    │ │ ├─┬ http-signature@1.1.1 </tspan>
<tspan x="10" y="1626">    │ │ │ ├── assert-plus@0.2.0 </tspan>
<tspan x="10" y="1642">    │ │ │ ├─┬ jsprim@1.4.0 </tspan>
<tspan x="10" y="1658">    │ │ │ │ ├── assert-plus@1.0.0 </tspan>
<tspan x="10" y="1674">    │ │ │ │ ├── extsprintf@1.0.2 </tspan>
<tspan x="10" y="1690">    │ │ │ │ ├── json-schema@0.2.3 </tspan>
<tspan x="10" y="1706">    │ │ │ │ └── verror@1.3.6 </tspan>
<tspan x="10" y="1722">    │ │ │ └─┬ sshpk@1.13.0 </tspan>
<tspan x="10" y="1738">    │ │ │   ├── asn1@0.2.3 </tspan>
<tspan x="10" y="1754">    │ │ │   ├── assert-plus@1.0.0 </tspan>
<tspan x="10" y="1770">    │ │ │   ├── bcrypt-pbkdf@1.0.1 </tspan>
<tspan x="10" y="1786">    │ │ │   ├─┬ dashdash@1.14.1 </tspan>
<tspan x="10" y="1802">    │ │ │   │ └── assert-plus@1.0.0 </tspan>
<tspan x="10" y="1818">    │ │ │   ├── ecc-jsbn@0.1.1 </tspan>
<tspan x="10" y="1834">    │ │ │   ├─┬ getpass@0.1.6 </tspan>
<tspan x="10" y="1850">    │ │ │   │ └── assert-plus@1.0.0 </tspan>
<tspan x="10" y="1866">    │ │ │   ├── jodid25519@1.0.2 </tspan>
<tspan x="10" y="1882">    │ │ │   ├── jsbn@0.1.1 </tspan>
<tspan x="10" y="1898">    │ │ │   └── tweetnacl@0.14.5 </tspan>
<tspan x="10" y="1914">    │ │ ├── is-typedarray@1.0.0 </tspan>
<tspan x="10" y="1930">    │ │ ├── isstream@0.1.2 </tspan>
<tspan x="10" y="1946">    │ │ ├── json-stringify-safe@5.0.1 </tspan>
<tspan x="10" y="1962">    │ │ ├── node-uuid@1.4.8 </tspan>
<tspan x="10" y="1978">    │ │ ├── oauth-sign@0.8.2 </tspan>
<tspan x="10" y="1994">    │ │ ├── qs@6.3.2 </tspan>
<tspan x="10" y="2010">    │ │ ├── stringstream@0.0.5 </tspan>
<tspan x="10" y="2026">    │ │ ├─┬ tough-cookie@2.3.2 </tspan>
<tspan x="10" y="2042">    │ │ │ └── punycode@1.4.1 </tspan>
<tspan x="10" y="2058">    │ │ └── tunnel-agent@0.4.3 </tspan>
<tspan x="10" y="2074">    │ └─┬ yargs@3.29.0 </tspan>
<tspan x="10" y="2090">    │   ├── camelcase@1.2.1 </tspan>
<tspan x="10" y="2106">    │   └── window-size@0.1.4 </tspan>
<tspan x="10" y="2122">    ├─┬ micromatch@2.3.11 </tspan>
<tspan x="10" y="2138">    │ ├─┬ arr-diff@2.0.0 </tspan>
<tspan x="10" y="2154">    │ │ └── arr-flatten@1.0.3 </tspan>
<tspan x="10" y="2170">    │ ├── array-unique@0.2.1 </tspan>
<tspan x="10" y="2186">    │ ├─┬ braces@1.8.5 </tspan>
<tspan x="10" y="2202">    │ │ ├─┬ expand-range@1.8.2 </tspan>
<tspan x="10" y="2218">    │ │ │ └─┬ fill-range@2.2.3 </tspan>
<tspan x="10" y="2234">    │ │ │   ├── is-number@2.1.0 </tspan>
<tspan x="10" y="2250">    │ │ │   ├── isobject@2.1.0 </tspan>
<tspan x="10" y="2266">    │ │ │   ├── randomatic@1.1.6 </tspan>
<tspan x="10" y="2282">    │ │ │   └── repeat-string@1.6.1 </tspan>
<tspan x="10" y="2298">    │ │ ├── preserve@0.2.0 </tspan>
<tspan x="10" y="2314">    │ │ └── repeat-element@1.1.2 </tspan>
<tspan x="10" y="2330">    │ ├─┬ expand-brackets@0.1.5 </tspan>
<tspan x="10" y="2346">    │ │ └── is-posix-bracket@0.1.1 </tspan>
<tspan x="10" y="2362">    │ ├── extglob@0.3.2 </tspan>
<tspan x="10" y="2378">    │ ├── filename-regex@2.0.0 </tspan>
<tspan x="10" y="2394">    │ ├── is-extglob@1.0.0 </tspan>
<tspan x="10" y="2410">    │ ├─┬ kind-of@3.1.0 </tspan>
<tspan x="10" y="2426">    │ │ └── is-buffer@1.1.5 </tspan>
<tspan x="10" y="2442">    │ ├─┬ normalize-path@2.1.1 </tspan>
<tspan x="10" y="2458">    │ │ └── remove-trailing-separator@1.0.1 </tspan>
<tspan x="10" y="2474">    │ ├─┬ object.omit@2.0.1 </tspan>
<tspan x="10" y="2490">    │ │ ├─┬ for-own@0.1.5 </tspan>
<tspan x="10" y="2506">    │ │ │ └── for-in@1.0.2 </tspan>
<tspan x="10" y="2522">    │ │ └── is-extendable@0.1.1 </tspan>
<tspan x="10" y="2538">    │ ├─┬ parse-glob@3.0.4 </tspan>
<tspan x="10" y="2554">    │ │ ├── glob-base@0.3.0 </tspan>
<tspan x="10" y="2570">    │ │ └── is-dotfile@1.0.2 </tspan>
<tspan x="10" y="2586">    │ └─┬ regex-cache@0.4.3 </tspan>
<tspan x="10" y="2602">    │   ├── is-equal-shallow@0.1.3 </tspan>
<tspan x="10" y="2618">    │   └── is-primitive@2.0.0 </tspan>
<tspan x="10" y="2634">    ├─┬ opn@4.0.2 </tspan>
<tspan x="10" y="2650">    │ ├── object-assign@4.1.1 </tspan>
<tspan x="10" y="2666">    │ └─┬ pinkie-promise@2.0.1 </tspan>
<tspan x="10" y="2682">    │   └── pinkie@2.0.4 </tspan>
<tspan x="10" y="2698">    ├─┬ portscanner@2.1.1 </tspan>
<tspan x="10" y="2714">    │ ├── async@1.5.2 </tspan>
<tspan x="10" y="2730">    │ └─┬ is-number-like@1.0.7 </tspan>
<tspan x="10" y="2746">    │   ├─┬ bubleify@0.5.1 </tspan>
<tspan x="10" y="2762">    │   │ └─┬ buble@0.12.5 </tspan>
<tspan x="10" y="2778">    │   │   ├── acorn@3.3.0 </tspan>
<tspan x="10" y="2794">    │   │   ├── acorn-jsx@3.0.1 </tspan>
<tspan x="10" y="2810">    │   │   ├── acorn-object-spread@1.0.0 </tspan>
<tspan x="10" y="2826">    │   │   ├─┬ magic-string@0.14.0 </tspan>
<tspan x="10" y="2842">    │   │   │ └── vlq@0.2.2 </tspan>
<tspan x="10" y="2858">    │   │   ├── minimist@1.2.0 </tspan>
<tspan x="10" y="2874">    │   │   └── os-homedir@1.0.2 </tspan>
<tspan x="10" y="2890">    │   └── lodash.isfinite@3.3.2 </tspan>
<tspan x="10" y="2906">    ├── qs@6.2.1 </tspan>
<tspan x="10" y="2922">    ├─┬ resp-modifier@6.0.2 </tspan>
<tspan x="10" y="2938">    │ └─┬ minimatch@3.0.3 </tspan>
<tspan x="10" y="2954">    │   └─┬ brace-expansion@1.1.7 </tspan>
<tspan x="10" y="2970">    │     ├── balanced-match@0.4.2 </tspan>
<tspan x="10" y="2986">    │     └── concat-map@0.0.1 </tspan>
<tspan x="10" y="3002">    ├── rx@4.1.0 </tspan>
<tspan x="10" y="3018">    ├─┬ serve-index@1.8.0 </tspan>
<tspan x="10" y="3034">    │ ├─┬ accepts@1.3.3 </tspan>
<tspan x="10" y="3050">    │ │ └── negotiator@0.6.1 </tspan>
<tspan x="10" y="3066">    │ ├── batch@0.5.3 </tspan>
<tspan x="10" y="3082">    │ ├── escape-html@1.0.3 </tspan>
<tspan x="10" y="3098">    │ ├─┬ http-errors@1.5.1 </tspan>
<tspan x="10" y="3114">    │ │ └── setprototypeof@1.0.2 </tspan>
<tspan x="10" y="3130">    │ └─┬ mime-types@2.1.15 </tspan>
<tspan x="10" y="3146">    │   └── mime-db@1.27.0 </tspan>
<tspan x="10" y="3162">    ├─┬ serve-static@1.11.1 </tspan>
<tspan x="10" y="3178">    │ ├── encodeurl@1.0.1 </tspan>
<tspan x="10" y="3194">    │ └─┬ send@0.14.1 </tspan>
<tspan x="10" y="3210">    │   ├── depd@1.1.0 </tspan>
<tspan x="10" y="3226">    │   ├── destroy@1.0.4 </tspan>
<tspan x="10" y="3242">    │   ├── etag@1.7.0 </tspan>
<tspan x="10" y="3258">    │   ├── mime@1.3.4 </tspan>
<tspan x="10" y="3274">    │   └── range-parser@1.2.0 </tspan>
<tspan x="10" y="3290">    ├── server-destroy@1.0.1 </tspan>
<tspan x="10" y="3306">    ├─┬ socket.io@1.6.0 </tspan>
<tspan x="10" y="3322">    │ ├─┬ debug@2.3.3 </tspan>
<tspan x="10" y="3338">    │ │ └── ms@0.7.2 </tspan>
<tspan x="10" y="3354">    │ ├─┬ engine.io@1.8.0 </tspan>
<tspan x="10" y="3370">    │ │ ├── base64id@0.1.0 </tspan>
<tspan x="10" y="3386">    │ │ ├── cookie@0.3.1 </tspan>
<tspan x="10" y="3402">    │ │ ├─┬ debug@2.3.3 </tspan>
<tspan x="10" y="3418">    │ │ │ └── ms@0.7.2 </tspan>
<tspan x="10" y="3434">    │ │ ├─┬ engine.io-parser@1.3.1 </tspan>
<tspan x="10" y="3450">    │ │ │ ├── after@0.8.1 </tspan>
<tspan x="10" y="3466">    │ │ │ ├── arraybuffer.slice@0.0.6 </tspan>
<tspan x="10" y="3482">    │ │ │ ├── base64-arraybuffer@0.1.5 </tspan>
<tspan x="10" y="3498">    │ │ │ ├── blob@0.0.4 </tspan>
<tspan x="10" y="3514">    │ │ │ ├─┬ has-binary@0.1.6 </tspan>
<tspan x="10" y="3530">    │ │ │ │ └── isarray@0.0.1 </tspan>
<tspan x="10" y="3546">    │ │ │ └── wtf-8@1.0.0 </tspan>
<tspan x="10" y="3562">    │ │ └─┬ ws@1.1.1 </tspan>
<tspan x="10" y="3578">    │ │   ├── options@0.0.6 </tspan>
<tspan x="10" y="3594">    │ │   └── ultron@1.0.2 </tspan>
<tspan x="10" y="3610">    │ ├─┬ has-binary@0.1.7 </tspan>
<tspan x="10" y="3626">    │ │ └── isarray@0.0.1 </tspan>
<tspan x="10" y="3642">    │ ├── object-assign@4.1.0 </tspan>
<tspan x="10" y="3658">    │ ├─┬ socket.io-adapter@0.5.0 </tspan>
<tspan x="10" y="3674">    │ │ └─┬ debug@2.3.3 </tspan>
<tspan x="10" y="3690">    │ │   └── ms@0.7.2 </tspan>
<tspan x="10" y="3706">    │ └─┬ socket.io-parser@2.3.1 </tspan>
<tspan x="10" y="3722">    │   ├── component-emitter@1.1.2 </tspan>
<tspan x="10" y="3738">    │   ├── isarray@0.0.1 </tspan>
<tspan x="10" y="3754">    │   └── json3@3.3.2 </tspan>
<tspan x="10" y="3770">    ├─┬ socket.io-client@1.6.0 </tspan>
<tspan x="10" y="3786">    │ ├── backo2@1.0.2 </tspan>
<tspan x="10" y="3802">    │ ├── component-bind@1.0.0 </tspan>
<tspan x="10" y="3818">    │ ├── component-emitter@1.2.1 </tspan>
<tspan x="10" y="3834">    │ ├─┬ debug@2.3.3 </tspan>
<tspan x="10" y="3850">    │ │ └── ms@0.7.2 </tspan>
<tspan x="10" y="3866">    │ ├─┬ engine.io-client@1.8.0 </tspan>
<tspan x="10" y="3882">    │ │ ├── component-emitter@1.2.1 </tspan>
<tspan x="10" y="3898">    │ │ ├── component-inherit@0.0.3 </tspan>
<tspan x="10" y="3914">    │ │ ├─┬ debug@2.3.3 </tspan>
<tspan x="10" y="3930">    │ │ │ └── ms@0.7.2 </tspan>
<tspan x="10" y="3946">    │ │ ├── has-cors@1.1.0 </tspan>
<tspan x="10" y="3962">    │ │ ├── parsejson@0.0.3 </tspan>
<tspan x="10" y="3978">    │ │ ├── parseqs@0.0.5 </tspan>
<tspan x="10" y="3994">    │ │ ├── xmlhttprequest-ssl@1.5.3 </tspan>
<tspan x="10" y="4010">    │ │ └── yeast@0.1.2 </tspan>
<tspan x="10" y="4026">    │ ├── indexof@0.0.1 </tspan>
<tspan x="10" y="4042">    │ ├── object-component@0.0.3 </tspan>
<tspan x="10" y="4058">    │ ├─┬ parseuri@0.0.5 </tspan>
<tspan x="10" y="4074">    │ │ └─┬ better-assert@1.0.2 </tspan>
<tspan x="10" y="4090">    │ │   └── callsite@1.0.0 </tspan>
<tspan x="10" y="4106">    │ └── to-array@0.1.4 </tspan>
<tspan x="10" y="4122">    ├── ua-parser-js@0.7.12 </tspan>
<tspan x="10" y="4138">    └─┬ yargs@6.4.0 </tspan>
<tspan x="10" y="4154">      ├── camelcase@3.0.0 </tspan>
<tspan x="10" y="4170">      ├─┬ cliui@3.2.0 </tspan>
<tspan x="10" y="4186">      │ ├─┬ strip-ansi@3.0.1 </tspan>
<tspan x="10" y="4202">      │ │ └── ansi-regex@2.1.1 </tspan>
<tspan x="10" y="4218">      │ └── wrap-ansi@2.1.0 </tspan>
<tspan x="10" y="4234">      ├── decamelize@1.2.0 </tspan>
<tspan x="10" y="4250">      ├── get-caller-file@1.0.2 </tspan>
<tspan x="10" y="4266">      ├─┬ os-locale@1.4.0 </tspan>
<tspan x="10" y="4282">      │ └─┬ lcid@1.0.0 </tspan>
<tspan x="10" y="4298">      │   └── invert-kv@1.0.0 </tspan>
<tspan x="10" y="4314">      ├─┬ read-pkg-up@1.0.1 </tspan>
<tspan x="10" y="4330">      │ ├─┬ find-up@1.1.2 </tspan>
<tspan x="10" y="4346">      │ │ └── path-exists@2.1.0 </tspan>
<tspan x="10" y="4362">      │ └─┬ read-pkg@1.1.0 </tspan>
<tspan x="10" y="4378">      │   ├─┬ load-json-file@1.1.0 </tspan>
<tspan x="10" y="4394">      │   │ ├─┬ parse-json@2.2.0 </tspan>
<tspan x="10" y="4410">      │   │ │ └─┬ error-ex@1.3.1 </tspan>
<tspan x="10" y="4426">      │   │ │   └── is-arrayish@0.2.1 </tspan>
<tspan x="10" y="4442">      │   │ ├── pify@2.3.0 </tspan>
<tspan x="10" y="4458">      │   │ └─┬ strip-bom@2.0.0 </tspan>
<tspan x="10" y="4474">      │   │   └── is-utf8@0.2.1 </tspan>
<tspan x="10" y="4490">      │   ├─┬ normalize-package-data@2.3.6 </tspan>
<tspan x="10" y="4506">      │   │ ├── hosted-git-info@2.4.2 </tspan>
<tspan x="10" y="4522">      │   │ ├─┬ is-builtin-module@1.0.0 </tspan>
<tspan x="10" y="4538">      │   │ │ └── builtin-modules@1.1.1 </tspan>
<tspan x="10" y="4554">      │   │ ├── semver@5.3.0 </tspan>
<tspan x="10" y="4570">      │   │ └─┬ validate-npm-package-license@3.0.1 </tspan>
<tspan x="10" y="4586">      │   │   ├─┬ spdx-correct@1.0.2 </tspan>
<tspan x="10" y="4602">      │   │   │ └── spdx-license-ids@1.2.2 </tspan>
<tspan x="10" y="4618">      │   │   └── spdx-expression-parse@1.0.4 </tspan>
<tspan x="10" y="4634">      │   └── path-type@1.1.0 </tspan>
<tspan x="10" y="4650">      ├── require-directory@2.1.1 </tspan>
<tspan x="10" y="4666">      ├── require-main-filename@1.0.1 </tspan>
<tspan x="10" y="4682">      ├── set-blocking@2.0.0 </tspan>
<tspan x="10" y="4698">      ├─┬ string-width@1.0.2 </tspan>
<tspan x="10" y="4714">      │ ├── code-point-at@1.1.0 </tspan>
<tspan x="10" y="4730">      │ └─┬ is-fullwidth-code-point@1.0.0 </tspan>
<tspan x="10" y="4746">      │   └── number-is-nan@1.0.1 </tspan>
<tspan x="10" y="4762">      ├── which-module@1.0.0 </tspan>
<tspan x="10" y="4778">      ├── window-size@0.2.0 </tspan>
<tspan x="10" y="4794">      ├── y18n@3.2.1 </tspan>
<tspan x="10" y="4810">      └─┬ yargs-parser@4.2.1 </tspan>
<tspan x="10" y="4826">        └── camelcase@3.0.0</tspan>
</text>
</svg>
